<svg width="871" height="355" viewBox="0 0 871 355" fill="none" xmlns="http://www.w3.org/2000/svg">
<path d="M1.20884 277.267C1.20884 279.787 1.83284 281.695 4.23284 281.695C6.62084 281.695 7.24484 279.787 7.24484 277.267C7.24484 274.783 6.62084 272.887 4.23284 272.887C1.83284 272.887 1.20884 274.783 1.20884 277.267ZM6.16484 277.267C6.16484 279.139 5.93684 280.699 4.23284 280.699C2.51684 280.699 2.28884 279.139 2.28884 277.267C2.28884 275.467 2.51684 273.883 4.23284 273.883C5.93684 273.883 6.16484 275.467 6.16484 277.267Z" fill="#979797"/>
<path d="M5.76425 236.695H6.86825V228.019H4.61225V229.015H5.76425V236.695Z" fill="#979797"/>
<path d="M1.70966 193.599H7.48166V192.687H3.35366C4.90166 191.427 7.22966 189.591 7.22966 187.431C7.22966 185.823 6.17366 184.863 4.54166 184.863C2.98166 184.863 1.81766 185.823 1.74566 187.671H2.80166C2.84966 186.579 3.42566 185.799 4.55366 185.799C5.72966 185.799 6.14966 186.519 6.14966 187.479C6.14966 189.255 3.98966 190.983 1.70966 192.819V193.599Z" fill="#979797"/>
<path d="M1.65359 143.203H2.72159C2.82959 142.363 3.44159 141.787 4.46159 141.787C5.50559 141.787 6.05759 142.363 6.05759 143.191C6.05759 144.199 5.27759 144.643 3.82559 144.655H3.53759V145.567H3.81359C5.37359 145.567 6.22559 146.035 6.22559 147.259C6.22559 148.147 5.67359 148.831 4.50959 148.831C3.35759 148.831 2.68559 148.123 2.57759 147.199H1.52159C1.65359 148.879 2.87759 149.755 4.52159 149.755C6.33359 149.755 7.26959 148.699 7.26959 147.355C7.26959 146.107 6.58559 145.363 5.57759 145.123V145.063C6.48959 144.859 7.11359 144.079 7.11359 143.083C7.11359 141.835 6.18959 140.851 4.49759 140.851C2.88959 140.851 1.76159 141.715 1.65359 143.203Z" fill="#979797"/>
<path d="M5.37313 105.695H6.45312V103.763H7.65313V102.815H6.45312V97.1033H5.14513L0.933125 102.935V103.763H5.37313V105.695ZM2.19313 102.815L5.42113 98.2433V102.815H2.19313Z" fill="#979797"/>
<path d="M1.52084 53.0073V57.9033H2.55284C2.84084 57.2193 3.47684 56.7633 4.35284 56.7633C5.61284 56.7633 6.24884 57.4833 6.24884 58.7193C6.24884 59.9073 5.66084 60.7953 4.34084 60.7953C3.32084 60.7953 2.61284 60.2553 2.40884 59.3433H1.34084C1.55684 60.7473 2.60084 61.7193 4.32884 61.7193C6.35684 61.7193 7.29284 60.3753 7.29284 58.6953C7.29284 57.3513 6.62084 55.8273 4.50884 55.8273C3.65684 55.8273 2.88884 56.2113 2.52884 56.7033V53.9673H6.74084V53.0073H1.52084Z" fill="#979797"/>
<path d="M6.97081 17.0833C6.82681 15.8713 5.98681 14.8393 4.33081 14.8393C2.13481 14.8393 1.25881 16.5193 1.25881 19.2433C1.25881 21.8713 1.87081 23.7193 4.43881 23.7193C6.33481 23.7193 7.27081 22.4233 7.27081 20.8393C7.27081 19.0153 6.17881 17.9473 4.55881 17.9473C3.52681 17.9473 2.57881 18.4273 2.20681 19.2793C2.19481 16.6993 2.93881 15.7513 4.31881 15.7513C5.30281 15.7513 5.79481 16.2433 5.96281 17.0833H6.97081ZM4.33081 18.8713C5.57881 18.8713 6.21481 19.6513 6.21481 20.8753C6.21481 22.0513 5.50681 22.8073 4.37881 22.8073C3.01081 22.8073 2.33881 21.9073 2.33881 20.7553C2.33881 19.4593 3.33481 18.8713 4.33081 18.8713Z" fill="#979797"/>
<path d="M26 18.7373H870.244" stroke="#E8E8ED" stroke-linecap="round"/>
<path d="M26 56.6953H853" stroke="#E8E8ED" stroke-linecap="square"/>
<path d="M26 231.695H853" stroke="#E8E8ED" stroke-linecap="square"/>
<path d="M26 188.695H853" stroke="#E8E8ED" stroke-linecap="square"/>
<path d="M26 144.695H853" stroke="#E8E8ED" stroke-linecap="square"/>
<path d="M26 100.695H853" stroke="#E8E8ED" stroke-linecap="square"/>
<path d="M204.358 330.507C204.358 333.015 206.194 334.767 208.534 334.767C210.346 334.767 211.786 333.867 212.41 332.259H211.102C210.646 333.255 209.758 333.819 208.534 333.819C206.782 333.819 205.474 332.547 205.474 330.507C205.474 328.455 206.782 327.183 208.534 327.183C209.758 327.183 210.646 327.747 211.102 328.755H212.41C211.786 327.135 210.346 326.223 208.534 326.223C206.194 326.223 204.358 327.999 204.358 330.507ZM213.627 331.383C213.627 333.423 214.983 334.803 216.735 334.803C217.947 334.803 218.799 334.179 219.195 333.471V334.695H220.299V328.119H219.195V329.319C218.811 328.635 217.971 328.011 216.747 328.011C214.983 328.011 213.627 329.331 213.627 331.383ZM219.195 331.395C219.195 332.943 218.163 333.843 216.963 333.843C215.763 333.843 214.743 332.931 214.743 331.383C214.743 329.835 215.763 328.959 216.963 328.959C218.163 328.959 219.195 329.871 219.195 331.395ZM222.385 332.895C222.385 334.215 223.045 334.695 224.209 334.695H225.193V333.771H224.389C223.717 333.771 223.477 333.543 223.477 332.895V329.019H225.193V328.119H223.477V326.463H222.385V328.119H221.533V329.019H222.385V332.895ZM229.312 328.935C230.44 328.935 231.4 329.643 231.388 330.927H227.236C227.356 329.643 228.244 328.935 229.312 328.935ZM232.384 332.667H231.208C230.968 333.375 230.344 333.879 229.36 333.879C228.244 333.879 227.308 333.147 227.224 331.815H232.48C232.504 331.587 232.516 331.395 232.516 331.155C232.516 329.355 231.268 328.011 229.36 328.011C227.44 328.011 226.108 329.319 226.108 331.395C226.108 333.483 227.488 334.803 229.36 334.803C230.992 334.803 232.048 333.867 232.384 332.667ZM233.549 331.383C233.549 333.423 234.905 334.803 236.669 334.803C237.869 334.803 238.721 334.167 239.117 333.459V334.839C239.117 336.243 238.241 336.987 237.077 336.987C235.997 336.987 235.217 336.447 234.977 335.655H233.897C234.113 337.059 235.349 337.935 237.077 337.935C239.009 337.935 240.221 336.651 240.221 334.839V328.119H239.117V329.319C238.733 328.611 237.869 328.011 236.669 328.011C234.905 328.011 233.549 329.331 233.549 331.383ZM239.117 331.395C239.117 332.943 238.085 333.843 236.885 333.843C235.685 333.843 234.665 332.931 234.665 331.383C234.665 329.835 235.685 328.959 236.885 328.959C238.085 328.959 239.117 329.871 239.117 331.395ZM248.307 331.395C248.307 329.319 246.855 328.011 244.983 328.011C243.123 328.011 241.659 329.319 241.659 331.395C241.659 333.483 243.075 334.803 244.935 334.803C246.807 334.803 248.307 333.483 248.307 331.395ZM242.775 331.395C242.775 329.739 243.819 328.959 244.971 328.959C246.099 328.959 247.191 329.739 247.191 331.395C247.191 333.063 246.075 333.843 244.935 333.843C243.795 333.843 242.775 333.063 242.775 331.395ZM250.834 331.119C250.834 329.595 251.626 329.127 252.67 329.127H252.958V327.999C251.914 327.999 251.206 328.455 250.834 329.187V328.119H249.742V334.695H250.834V331.119ZM256.715 333.447L254.651 328.119H253.439L256.091 334.623L254.795 337.791H255.923L259.883 328.119H258.755L256.715 333.447ZM263.868 334.599H269.64V333.687H265.512C267.06 332.427 269.388 330.591 269.388 328.431C269.388 326.823 268.332 325.863 266.7 325.863C265.14 325.863 263.976 326.823 263.904 328.671H264.96C265.008 327.579 265.584 326.799 266.712 326.799C267.888 326.799 268.308 327.519 268.308 328.479C268.308 330.255 266.148 331.983 263.868 333.819V334.599Z" fill="#979797"/>
<path d="M215 169.695C215 166.934 217.239 164.695 220 164.695H255C257.761 164.695 260 166.934 260 169.695V276.695H215V169.695Z" fill="#D9EBFF"/>
<path d="M480.036 330.507C480.036 333.015 481.872 334.767 484.212 334.767C486.024 334.767 487.464 333.867 488.088 332.259H486.78C486.324 333.255 485.436 333.819 484.212 333.819C482.46 333.819 481.152 332.547 481.152 330.507C481.152 328.455 482.46 327.183 484.212 327.183C485.436 327.183 486.324 327.747 486.78 328.755H488.088C487.464 327.135 486.024 326.223 484.212 326.223C481.872 326.223 480.036 327.999 480.036 330.507ZM489.305 331.383C489.305 333.423 490.661 334.803 492.413 334.803C493.625 334.803 494.477 334.179 494.873 333.471V334.695H495.977V328.119H494.873V329.319C494.489 328.635 493.649 328.011 492.425 328.011C490.661 328.011 489.305 329.331 489.305 331.383ZM494.873 331.395C494.873 332.943 493.841 333.843 492.641 333.843C491.441 333.843 490.421 332.931 490.421 331.383C490.421 329.835 491.441 328.959 492.641 328.959C493.841 328.959 494.873 329.871 494.873 331.395ZM498.062 332.895C498.062 334.215 498.722 334.695 499.886 334.695H500.87V333.771H500.066C499.394 333.771 499.154 333.543 499.154 332.895V329.019H500.87V328.119H499.154V326.463H498.062V328.119H497.21V329.019H498.062V332.895ZM504.99 328.935C506.118 328.935 507.078 329.643 507.066 330.927H502.914C503.034 329.643 503.922 328.935 504.99 328.935ZM508.062 332.667H506.886C506.646 333.375 506.022 333.879 505.038 333.879C503.922 333.879 502.986 333.147 502.902 331.815H508.158C508.182 331.587 508.194 331.395 508.194 331.155C508.194 329.355 506.946 328.011 505.038 328.011C503.118 328.011 501.786 329.319 501.786 331.395C501.786 333.483 503.166 334.803 505.038 334.803C506.67 334.803 507.726 333.867 508.062 332.667ZM509.227 331.383C509.227 333.423 510.583 334.803 512.347 334.803C513.547 334.803 514.399 334.167 514.795 333.459V334.839C514.795 336.243 513.919 336.987 512.755 336.987C511.675 336.987 510.895 336.447 510.655 335.655H509.575C509.791 337.059 511.027 337.935 512.755 337.935C514.687 337.935 515.899 336.651 515.899 334.839V328.119H514.795V329.319C514.411 328.611 513.547 328.011 512.347 328.011C510.583 328.011 509.227 329.331 509.227 331.383ZM514.795 331.395C514.795 332.943 513.763 333.843 512.563 333.843C511.363 333.843 510.343 332.931 510.343 331.383C510.343 329.835 511.363 328.959 512.563 328.959C513.763 328.959 514.795 329.871 514.795 331.395ZM523.984 331.395C523.984 329.319 522.532 328.011 520.66 328.011C518.8 328.011 517.336 329.319 517.336 331.395C517.336 333.483 518.752 334.803 520.612 334.803C522.484 334.803 523.984 333.483 523.984 331.395ZM518.452 331.395C518.452 329.739 519.496 328.959 520.648 328.959C521.776 328.959 522.868 329.739 522.868 331.395C522.868 333.063 521.752 333.843 520.612 333.843C519.472 333.843 518.452 333.063 518.452 331.395ZM526.512 331.119C526.512 329.595 527.304 329.127 528.348 329.127H528.636V327.999C527.592 327.999 526.884 328.455 526.512 329.187V328.119H525.42V334.695H526.512V331.119ZM532.393 333.447L530.329 328.119H529.117L531.769 334.623L530.473 337.791H531.601L535.561 328.119H534.433L532.393 333.447ZM543.854 334.695H544.934V332.763H546.134V331.815H544.934V326.103H543.626L539.414 331.935V332.763H543.854V334.695ZM540.674 331.815L543.902 327.243V331.815H540.674Z" fill="#979797"/>
<path d="M491 118.695C491 115.934 493.239 113.695 496 113.695H531C533.761 113.695 536 115.934 536 118.695V276.695H491V118.695Z" fill="#D9EBFF"/>
<path d="M756 330.507C756 333.015 757.836 334.767 760.176 334.767C761.988 334.767 763.428 333.867 764.052 332.259H762.744C762.288 333.255 761.4 333.819 760.176 333.819C758.424 333.819 757.116 332.547 757.116 330.507C757.116 328.455 758.424 327.183 760.176 327.183C761.4 327.183 762.288 327.747 762.744 328.755H764.052C763.428 327.135 761.988 326.223 760.176 326.223C757.836 326.223 756 327.999 756 330.507ZM765.27 331.383C765.27 333.423 766.626 334.803 768.378 334.803C769.59 334.803 770.442 334.179 770.838 333.471V334.695H771.942V328.119H770.838V329.319C770.454 328.635 769.614 328.011 768.39 328.011C766.626 328.011 765.27 329.331 765.27 331.383ZM770.838 331.395C770.838 332.943 769.806 333.843 768.606 333.843C767.406 333.843 766.386 332.931 766.386 331.383C766.386 329.835 767.406 328.959 768.606 328.959C769.806 328.959 770.838 329.871 770.838 331.395ZM774.027 332.895C774.027 334.215 774.687 334.695 775.851 334.695H776.835V333.771H776.031C775.359 333.771 775.119 333.543 775.119 332.895V329.019H776.835V328.119H775.119V326.463H774.027V328.119H773.175V329.019H774.027V332.895ZM780.954 328.935C782.082 328.935 783.042 329.643 783.03 330.927H778.878C778.998 329.643 779.886 328.935 780.954 328.935ZM784.026 332.667H782.85C782.61 333.375 781.986 333.879 781.002 333.879C779.886 333.879 778.95 333.147 778.866 331.815H784.122C784.146 331.587 784.158 331.395 784.158 331.155C784.158 329.355 782.91 328.011 781.002 328.011C779.082 328.011 777.75 329.319 777.75 331.395C777.75 333.483 779.13 334.803 781.002 334.803C782.634 334.803 783.69 333.867 784.026 332.667ZM785.192 331.383C785.192 333.423 786.548 334.803 788.312 334.803C789.512 334.803 790.364 334.167 790.76 333.459V334.839C790.76 336.243 789.884 336.987 788.72 336.987C787.64 336.987 786.86 336.447 786.62 335.655H785.54C785.756 337.059 786.992 337.935 788.72 337.935C790.652 337.935 791.864 336.651 791.864 334.839V328.119H790.76V329.319C790.376 328.611 789.512 328.011 788.312 328.011C786.548 328.011 785.192 329.331 785.192 331.383ZM790.76 331.395C790.76 332.943 789.728 333.843 788.528 333.843C787.328 333.843 786.308 332.931 786.308 331.383C786.308 329.835 787.328 328.959 788.528 328.959C789.728 328.959 790.76 329.871 790.76 331.395ZM799.949 331.395C799.949 329.319 798.497 328.011 796.625 328.011C794.765 328.011 793.301 329.319 793.301 331.395C793.301 333.483 794.717 334.803 796.577 334.803C798.449 334.803 799.949 333.483 799.949 331.395ZM794.417 331.395C794.417 329.739 795.461 328.959 796.613 328.959C797.741 328.959 798.833 329.739 798.833 331.395C798.833 333.063 797.717 333.843 796.577 333.843C795.437 333.843 794.417 333.063 794.417 331.395ZM802.477 331.119C802.477 329.595 803.269 329.127 804.313 329.127H804.601V327.999C803.557 327.999 802.849 328.455 802.477 329.187V328.119H801.385V334.695H802.477V331.119ZM808.358 333.447L806.294 328.119H805.082L807.734 334.623L806.438 337.791H807.566L811.526 328.119H810.398L808.358 333.447ZM821.486 328.083C821.342 326.871 820.502 325.839 818.846 325.839C816.65 325.839 815.774 327.519 815.774 330.243C815.774 332.871 816.386 334.719 818.954 334.719C820.85 334.719 821.786 333.423 821.786 331.839C821.786 330.015 820.694 328.947 819.074 328.947C818.042 328.947 817.094 329.427 816.722 330.279C816.71 327.699 817.454 326.751 818.834 326.751C819.818 326.751 820.31 327.243 820.478 328.083H821.486ZM818.846 329.871C820.094 329.871 820.73 330.651 820.73 331.875C820.73 333.051 820.022 333.807 818.894 333.807C817.526 333.807 816.854 332.907 816.854 331.755C816.854 330.459 817.85 329.871 818.846 329.871Z" fill="#979797"/>
<path d="M767 118.695C767 115.934 769.239 113.695 772 113.695H807C809.761 113.695 812 115.934 812 118.695V276.695H767V118.695Z" fill="#D9EBFF"/>
<path d="M67.8871 330.507C67.8871 333.015 69.7231 334.767 72.0631 334.767C73.8751 334.767 75.3151 333.867 75.9391 332.259H74.6311C74.1751 333.255 73.2871 333.819 72.0631 333.819C70.3111 333.819 69.0031 332.547 69.0031 330.507C69.0031 328.455 70.3111 327.183 72.0631 327.183C73.2871 327.183 74.1751 327.747 74.6311 328.755H75.9391C75.3151 327.135 73.8751 326.223 72.0631 326.223C69.7231 326.223 67.8871 327.999 67.8871 330.507ZM77.1566 331.383C77.1566 333.423 78.5126 334.803 80.2646 334.803C81.4766 334.803 82.3286 334.179 82.7246 333.471V334.695H83.8286V328.119H82.7246V329.319C82.3406 328.635 81.5006 328.011 80.2766 328.011C78.5126 328.011 77.1566 329.331 77.1566 331.383ZM82.7246 331.395C82.7246 332.943 81.6926 333.843 80.4926 333.843C79.2926 333.843 78.2726 332.931 78.2726 331.383C78.2726 329.835 79.2926 328.959 80.4926 328.959C81.6926 328.959 82.7246 329.871 82.7246 331.395ZM85.914 332.895C85.914 334.215 86.574 334.695 87.738 334.695H88.722V333.771H87.918C87.246 333.771 87.006 333.543 87.006 332.895V329.019H88.722V328.119H87.006V326.463H85.914V328.119H85.062V329.019H85.914V332.895ZM92.8411 328.935C93.9691 328.935 94.9291 329.643 94.9171 330.927H90.7651C90.8851 329.643 91.7731 328.935 92.8411 328.935ZM95.9131 332.667H94.7371C94.4971 333.375 93.8731 333.879 92.8891 333.879C91.7731 333.879 90.8371 333.147 90.7531 331.815H96.0091C96.0331 331.587 96.0451 331.395 96.0451 331.155C96.0451 329.355 94.7971 328.011 92.8891 328.011C90.9691 328.011 89.6371 329.319 89.6371 331.395C89.6371 333.483 91.0171 334.803 92.8891 334.803C94.5211 334.803 95.5771 333.867 95.9131 332.667ZM97.0785 331.383C97.0785 333.423 98.4345 334.803 100.199 334.803C101.399 334.803 102.251 334.167 102.647 333.459V334.839C102.647 336.243 101.771 336.987 100.607 336.987C99.5265 336.987 98.7465 336.447 98.5065 335.655H97.4265C97.6425 337.059 98.8785 337.935 100.607 337.935C102.539 337.935 103.751 336.651 103.751 334.839V328.119H102.647V329.319C102.263 328.611 101.399 328.011 100.199 328.011C98.4345 328.011 97.0785 329.331 97.0785 331.383ZM102.647 331.395C102.647 332.943 101.615 333.843 100.415 333.843C99.2145 333.843 98.1945 332.931 98.1945 331.383C98.1945 329.835 99.2145 328.959 100.415 328.959C101.615 328.959 102.647 329.871 102.647 331.395ZM111.836 331.395C111.836 329.319 110.384 328.011 108.512 328.011C106.652 328.011 105.188 329.319 105.188 331.395C105.188 333.483 106.604 334.803 108.464 334.803C110.336 334.803 111.836 333.483 111.836 331.395ZM106.304 331.395C106.304 329.739 107.348 328.959 108.5 328.959C109.628 328.959 110.72 329.739 110.72 331.395C110.72 333.063 109.604 333.843 108.464 333.843C107.324 333.843 106.304 333.063 106.304 331.395ZM114.364 331.119C114.364 329.595 115.156 329.127 116.2 329.127H116.488V327.999C115.444 327.999 114.736 328.455 114.364 329.187V328.119H113.272V334.695H114.364V331.119ZM120.244 333.447L118.18 328.119H116.968L119.62 334.623L118.324 337.791H119.452L123.412 328.119H122.284L120.244 333.447ZM128.393 334.695H129.497V326.019H127.241V327.015H128.393V334.695Z" fill="#979797"/>
<path d="M77 62.6953C77 59.9339 79.2386 57.6953 82 57.6953H117C119.761 57.6953 122 59.9339 122 62.6953V276.695H77V62.6953Z" fill="#6CB0FF"/>
<path d="M342.276 330.507C342.276 333.015 344.112 334.767 346.452 334.767C348.264 334.767 349.704 333.867 350.328 332.259H349.02C348.564 333.255 347.676 333.819 346.452 333.819C344.7 333.819 343.392 332.547 343.392 330.507C343.392 328.455 344.7 327.183 346.452 327.183C347.676 327.183 348.564 327.747 349.02 328.755H350.328C349.704 327.135 348.264 326.223 346.452 326.223C344.112 326.223 342.276 327.999 342.276 330.507ZM351.545 331.383C351.545 333.423 352.901 334.803 354.653 334.803C355.865 334.803 356.717 334.179 357.113 333.471V334.695H358.217V328.119H357.113V329.319C356.729 328.635 355.889 328.011 354.665 328.011C352.901 328.011 351.545 329.331 351.545 331.383ZM357.113 331.395C357.113 332.943 356.081 333.843 354.881 333.843C353.681 333.843 352.661 332.931 352.661 331.383C352.661 329.835 353.681 328.959 354.881 328.959C356.081 328.959 357.113 329.871 357.113 331.395ZM360.303 332.895C360.303 334.215 360.963 334.695 362.127 334.695H363.111V333.771H362.307C361.635 333.771 361.395 333.543 361.395 332.895V329.019H363.111V328.119H361.395V326.463H360.303V328.119H359.451V329.019H360.303V332.895ZM367.23 328.935C368.358 328.935 369.318 329.643 369.306 330.927H365.154C365.274 329.643 366.162 328.935 367.23 328.935ZM370.302 332.667H369.126C368.886 333.375 368.262 333.879 367.278 333.879C366.162 333.879 365.226 333.147 365.142 331.815H370.398C370.422 331.587 370.434 331.395 370.434 331.155C370.434 329.355 369.186 328.011 367.278 328.011C365.358 328.011 364.026 329.319 364.026 331.395C364.026 333.483 365.406 334.803 367.278 334.803C368.91 334.803 369.966 333.867 370.302 332.667ZM371.467 331.383C371.467 333.423 372.823 334.803 374.587 334.803C375.787 334.803 376.639 334.167 377.035 333.459V334.839C377.035 336.243 376.159 336.987 374.995 336.987C373.915 336.987 373.135 336.447 372.895 335.655H371.815C372.031 337.059 373.267 337.935 374.995 337.935C376.927 337.935 378.139 336.651 378.139 334.839V328.119H377.035V329.319C376.651 328.611 375.787 328.011 374.587 328.011C372.823 328.011 371.467 329.331 371.467 331.383ZM377.035 331.395C377.035 332.943 376.003 333.843 374.803 333.843C373.603 333.843 372.583 332.931 372.583 331.383C372.583 329.835 373.603 328.959 374.803 328.959C376.003 328.959 377.035 329.871 377.035 331.395ZM386.225 331.395C386.225 329.319 384.773 328.011 382.901 328.011C381.041 328.011 379.577 329.319 379.577 331.395C379.577 333.483 380.993 334.803 382.853 334.803C384.725 334.803 386.225 333.483 386.225 331.395ZM380.693 331.395C380.693 329.739 381.737 328.959 382.889 328.959C384.017 328.959 385.109 329.739 385.109 331.395C385.109 333.063 383.993 333.843 382.853 333.843C381.713 333.843 380.693 333.063 380.693 331.395ZM388.752 331.119C388.752 329.595 389.544 329.127 390.588 329.127H390.876V327.999C389.832 327.999 389.124 328.455 388.752 329.187V328.119H387.66V334.695H388.752V331.119ZM394.633 333.447L392.569 328.119H391.357L394.009 334.623L392.713 337.791H393.841L397.801 328.119H396.673L394.633 333.447ZM401.894 328.203H402.962C403.07 327.363 403.682 326.787 404.702 326.787C405.746 326.787 406.298 327.363 406.298 328.191C406.298 329.199 405.518 329.643 404.066 329.655H403.778V330.567H404.054C405.614 330.567 406.466 331.035 406.466 332.259C406.466 333.147 405.914 333.831 404.75 333.831C403.598 333.831 402.926 333.123 402.818 332.199H401.762C401.894 333.879 403.118 334.755 404.762 334.755C406.574 334.755 407.51 333.699 407.51 332.355C407.51 331.107 406.826 330.363 405.818 330.123V330.063C406.73 329.859 407.354 329.079 407.354 328.083C407.354 326.835 406.43 325.851 404.738 325.851C403.13 325.851 402.002 326.715 401.894 328.203Z" fill="#979797"/>
<path d="M353 13.6953C353 10.9339 355.239 8.69531 358 8.69531H393C395.761 8.69531 398 10.9339 398 13.6953V276.695H353V13.6953Z" fill="#6CB0FF"/>
<path d="M618.041 330.507C618.041 333.015 619.877 334.767 622.217 334.767C624.029 334.767 625.469 333.867 626.093 332.259H624.785C624.329 333.255 623.441 333.819 622.217 333.819C620.465 333.819 619.157 332.547 619.157 330.507C619.157 328.455 620.465 327.183 622.217 327.183C623.441 327.183 624.329 327.747 624.785 328.755H626.093C625.469 327.135 624.029 326.223 622.217 326.223C619.877 326.223 618.041 327.999 618.041 330.507ZM627.311 331.383C627.311 333.423 628.667 334.803 630.419 334.803C631.631 334.803 632.483 334.179 632.879 333.471V334.695H633.983V328.119H632.879V329.319C632.495 328.635 631.655 328.011 630.431 328.011C628.667 328.011 627.311 329.331 627.311 331.383ZM632.879 331.395C632.879 332.943 631.847 333.843 630.647 333.843C629.447 333.843 628.427 332.931 628.427 331.383C628.427 329.835 629.447 328.959 630.647 328.959C631.847 328.959 632.879 329.871 632.879 331.395ZM636.068 332.895C636.068 334.215 636.728 334.695 637.892 334.695H638.876V333.771H638.072C637.4 333.771 637.16 333.543 637.16 332.895V329.019H638.876V328.119H637.16V326.463H636.068V328.119H635.216V329.019H636.068V332.895ZM642.995 328.935C644.123 328.935 645.083 329.643 645.071 330.927H640.919C641.039 329.643 641.927 328.935 642.995 328.935ZM646.067 332.667H644.891C644.651 333.375 644.027 333.879 643.043 333.879C641.927 333.879 640.991 333.147 640.907 331.815H646.163C646.187 331.587 646.199 331.395 646.199 331.155C646.199 329.355 644.951 328.011 643.043 328.011C641.123 328.011 639.791 329.319 639.791 331.395C639.791 333.483 641.171 334.803 643.043 334.803C644.675 334.803 645.731 333.867 646.067 332.667ZM647.233 331.383C647.233 333.423 648.589 334.803 650.353 334.803C651.553 334.803 652.405 334.167 652.801 333.459V334.839C652.801 336.243 651.925 336.987 650.761 336.987C649.681 336.987 648.901 336.447 648.661 335.655H647.581C647.797 337.059 649.033 337.935 650.761 337.935C652.693 337.935 653.905 336.651 653.905 334.839V328.119H652.801V329.319C652.417 328.611 651.553 328.011 650.353 328.011C648.589 328.011 647.233 329.331 647.233 331.383ZM652.801 331.395C652.801 332.943 651.769 333.843 650.569 333.843C649.369 333.843 648.349 332.931 648.349 331.383C648.349 329.835 649.369 328.959 650.569 328.959C651.769 328.959 652.801 329.871 652.801 331.395ZM661.99 331.395C661.99 329.319 660.538 328.011 658.666 328.011C656.806 328.011 655.342 329.319 655.342 331.395C655.342 333.483 656.758 334.803 658.618 334.803C660.49 334.803 661.99 333.483 661.99 331.395ZM656.458 331.395C656.458 329.739 657.502 328.959 658.654 328.959C659.782 328.959 660.874 329.739 660.874 331.395C660.874 333.063 659.758 333.843 658.618 333.843C657.478 333.843 656.458 333.063 656.458 331.395ZM664.518 331.119C664.518 329.595 665.31 329.127 666.354 329.127H666.642V327.999C665.598 327.999 664.89 328.455 664.518 329.187V328.119H663.426V334.695H664.518V331.119ZM670.399 333.447L668.335 328.119H667.123L669.775 334.623L668.479 337.791H669.607L673.567 328.119H672.439L670.399 333.447ZM677.995 326.007V330.903H679.027C679.315 330.219 679.951 329.763 680.827 329.763C682.087 329.763 682.723 330.483 682.723 331.719C682.723 332.907 682.135 333.795 680.815 333.795C679.795 333.795 679.087 333.255 678.883 332.343H677.815C678.031 333.747 679.075 334.719 680.803 334.719C682.831 334.719 683.767 333.375 683.767 331.695C683.767 330.351 683.095 328.827 680.983 328.827C680.131 328.827 679.363 329.211 679.003 329.703V326.967H683.215V326.007H677.995Z" fill="#979797"/>
<path d="M629 92.6953C629 89.9339 631.239 87.6953 634 87.6953H669C671.761 87.6953 674 89.9339 674 92.6953V276.695H629V92.6953Z" fill="#6CB0FF"/>
<path d="M25.5883 1.52871e-05L25.5849 276.631M852.991 276.663L24.9966 276.642" stroke="#E8E8ED"/>
</svg>
